<svg width="25" height="28" viewBox="0 0 25 28" fill="none" xmlns="http://www.w3.org/2000/svg">
<path fill-rule="evenodd" clip-rule="evenodd" d="M3.22797 6.28571C3.22797 5.78866 3.63091 5.38571 4.12797 5.38571H20.128C20.625 5.38571 21.028 5.78866 21.028 6.28571C21.028 6.78277 20.625 7.18571 20.128 7.18571H4.12797C3.63091 7.18571 3.22797 6.78277 3.22797 6.28571Z" fill="black"/>
<path fill-rule="evenodd" clip-rule="evenodd" d="M3.2276 12.2857C3.2276 11.7887 3.54452 11.3857 3.93547 11.3857H16.5197C16.9107 11.3857 17.2276 11.7887 17.2276 12.2857C17.2276 12.7828 16.9107 13.1857 16.5197 13.1857H3.93547C3.54452 13.1857 3.2276 12.7828 3.2276 12.2857Z" fill="black"/>
<path fill-rule="evenodd" clip-rule="evenodd" d="M3.22797 18.2857C3.22797 17.7887 3.63091 17.3857 4.12797 17.3857H20.128C20.625 17.3857 21.028 17.7887 21.028 18.2857C21.028 18.7828 20.625 19.1857 20.128 19.1857H4.12797C3.63091 19.1857 3.22797 18.7828 3.22797 18.2857Z" fill="black"/>
</svg>
